<svg width="305" height="88" viewBox="0 0 305 88" fill="none" xmlns="http://www.w3.org/2000/svg">
<path d="M187.968 68V28.58H198.174C200.73 28.58 202.926 29.066 204.762 30.038C206.634 31.01 208.074 32.378 209.082 34.142C210.126 35.906 210.648 37.994 210.648 40.406V56.12C210.648 58.532 210.126 60.638 209.082 62.438C208.074 64.202 206.634 65.57 204.762 66.542C202.926 67.514 200.73 68 198.174 68H187.968ZM192.828 63.68H198.174C200.55 63.68 202.404 63.014 203.736 61.682C205.104 60.35 205.788 58.496 205.788 56.12V40.406C205.788 38.066 205.104 36.23 203.736 34.898C202.404 33.566 200.55 32.9 198.174 32.9H192.828V63.68ZM228.879 68.54C226.467 68.54 224.361 68.072 222.561 67.136C220.797 66.164 219.429 64.814 218.457 63.086C217.485 61.322 216.999 59.27 216.999 56.93V39.65C216.999 37.274 217.485 35.222 218.457 33.494C219.429 31.766 220.797 30.434 222.561 29.498C224.361 28.526 226.467 28.04 228.879 28.04C231.327 28.04 233.433 28.526 235.197 29.498C236.961 30.434 238.329 31.766 239.301 33.494C240.273 35.222 240.759 37.274 240.759 39.65V56.93C240.759 59.27 240.273 61.322 239.301 63.086C238.329 64.814 236.943 66.164 235.143 67.136C233.379 68.072 231.291 68.54 228.879 68.54ZM228.879 64.382C231.039 64.382 232.767 63.698 234.063 62.33C235.395 60.926 236.061 59.126 236.061 56.93V39.65C236.061 37.454 235.395 35.672 234.063 34.304C232.767 32.9 231.039 32.198 228.879 32.198C226.719 32.198 224.973 32.9 223.641 34.304C222.345 35.672 221.697 37.454 221.697 39.65V56.93C221.697 59.126 222.345 60.926 223.641 62.33C224.973 63.698 226.719 64.382 228.879 64.382ZM228.879 51.476C227.907 51.476 227.115 51.17 226.503 50.558C225.927 49.946 225.639 49.136 225.639 48.128C225.639 47.156 225.927 46.382 226.503 45.806C227.115 45.194 227.907 44.888 228.879 44.888C229.851 44.888 230.625 45.194 231.201 45.806C231.813 46.382 232.119 47.156 232.119 48.128C232.119 49.136 231.813 49.946 231.201 50.558C230.625 51.17 229.851 51.476 228.879 51.476ZM258.774 68.54C256.398 68.54 254.328 68.09 252.564 67.19C250.836 66.29 249.486 64.994 248.514 63.302C247.578 61.574 247.11 59.54 247.11 57.2V39.38C247.11 37.004 247.578 34.97 248.514 33.278C249.486 31.586 250.836 30.29 252.564 29.39C254.328 28.49 256.398 28.04 258.774 28.04C261.15 28.04 263.202 28.508 264.93 29.444C266.658 30.344 267.99 31.64 268.926 33.332C269.862 35.024 270.33 37.04 270.33 39.38H265.47C265.47 37.148 264.876 35.438 263.688 34.25C262.536 33.026 260.898 32.414 258.774 32.414C256.65 32.414 254.976 33.008 253.752 34.196C252.564 35.384 251.97 37.094 251.97 39.326V57.2C251.97 59.432 252.564 61.16 253.752 62.384C254.976 63.572 256.65 64.166 258.774 64.166C260.898 64.166 262.536 63.572 263.688 62.384C264.876 61.16 265.47 59.432 265.47 57.2H270.33C270.33 59.504 269.862 61.52 268.926 63.248C267.99 64.94 266.658 66.254 264.93 67.19C263.202 68.09 261.15 68.54 258.774 68.54ZM288.453 68.54C285.861 68.54 283.629 68.108 281.757 67.244C279.921 66.38 278.499 65.138 277.491 63.518C276.483 61.898 275.961 59.972 275.925 57.74H280.785C280.785 59.72 281.451 61.286 282.783 62.438C284.151 63.59 286.041 64.166 288.453 64.166C290.721 64.166 292.485 63.608 293.745 62.492C295.041 61.376 295.689 59.828 295.689 57.848C295.689 56.264 295.257 54.878 294.393 53.69C293.565 52.502 292.359 51.674 290.775 51.206L285.429 49.532C282.729 48.704 280.641 47.318 279.165 45.374C277.725 43.43 277.005 41.144 277.005 38.516C277.005 36.392 277.473 34.556 278.409 33.008C279.381 31.424 280.731 30.2 282.459 29.336C284.187 28.436 286.221 27.986 288.561 27.986C292.017 27.986 294.789 28.958 296.877 30.902C298.965 32.81 300.027 35.366 300.063 38.57H295.203C295.203 36.626 294.609 35.114 293.421 34.034C292.269 32.918 290.631 32.36 288.507 32.36C286.419 32.36 284.781 32.864 283.593 33.872C282.441 34.88 281.865 36.284 281.865 38.084C281.865 39.704 282.297 41.108 283.161 42.296C284.025 43.484 285.267 44.33 286.887 44.834L292.287 46.562C294.915 47.39 296.949 48.794 298.389 50.774C299.829 52.754 300.549 55.076 300.549 57.74C300.549 59.9 300.045 61.79 299.037 63.41C298.029 65.03 296.607 66.29 294.771 67.19C292.971 68.09 290.865 68.54 288.453 68.54Z" fill="#242424" fill-opacity="0.85"/>
<path d="M165.131 33.6487C164.34 32.7958 163.517 32.0953 162.664 31.5471C161.812 30.9988 160.685 30.7247 159.284 30.7247C158.431 30.7247 157.578 31.1207 156.725 31.9126C155.933 32.7045 155.141 33.7705 154.349 35.1106C153.618 36.3899 152.918 37.8823 152.248 39.5879C151.578 41.2327 150.999 42.9078 150.512 44.6135L146.126 67H135.892L140.552 43.9739C140.918 42.2073 141.161 40.5626 141.283 39.0397C141.466 37.5168 141.557 36.1462 141.557 34.9279C141.557 31.5775 141.253 29.1409 140.643 27.618C140.034 26.0951 139.577 25.09 139.273 24.6027L147.588 21.3132C148.258 22.166 148.806 23.2016 149.232 24.4199C149.72 25.6382 149.963 27.1916 149.963 29.08C149.963 30.3592 149.842 31.7907 149.598 33.3745C149.415 34.8974 149.263 36.3594 149.141 37.7605C150.42 32.2171 152.096 28.1053 154.167 25.425C156.238 22.7447 158.979 21.4046 162.39 21.4046C164.461 21.4046 166.137 21.7701 167.416 22.5011C168.695 23.1712 169.7 24.0544 170.431 25.1509L165.131 33.6487Z" fill="#C94402"/>
<path d="M129.983 36.5726C129.983 40.8976 129.404 44.9485 128.247 48.7252C127.15 52.502 125.505 55.8219 123.312 58.685C121.119 61.4871 118.409 63.7105 115.18 65.3552C112.013 66.939 108.388 67.7309 104.307 67.7309C102.114 67.7309 100.012 67.4873 98.002 66.9999C95.9917 66.5126 94.2252 65.9948 92.7023 65.4466C91.2403 64.8983 90.0829 64.411 89.2301 63.9846C88.3773 63.4973 87.9813 63.2536 88.0423 63.2536L99.9208 2.58162L110.246 0.75415L107.413 16.0135C107.048 17.9628 106.469 20.3081 105.677 23.0493C104.885 25.7905 104.094 28.3794 103.302 30.816C105.251 27.2829 107.444 24.8463 109.881 23.5062C112.378 22.166 115.028 21.4959 117.83 21.4959C120.023 21.4959 121.881 21.9223 123.404 22.7752C124.927 23.628 126.175 24.7854 127.15 26.2474C128.125 27.6484 128.825 29.2627 129.252 31.0902C129.739 32.8567 129.983 34.6842 129.983 36.5726ZM114.449 28.9886C112.987 28.9886 111.525 29.7195 110.063 31.1815C108.662 32.6435 107.292 34.5928 105.951 37.0294C104.672 39.4051 103.484 42.1463 102.388 45.253C101.352 48.2988 100.53 51.4664 99.9208 54.7559L98.9157 59.8728C99.8294 60.1774 100.743 60.3906 101.657 60.5124C102.632 60.6343 103.454 60.6952 104.124 60.6952C106.865 60.6952 109.18 59.9337 111.068 58.4108C112.957 56.827 114.48 54.8473 115.637 52.4715C116.855 50.0349 117.739 47.3851 118.287 44.5221C118.835 41.5981 119.109 38.8264 119.109 36.2071C119.109 33.5268 118.713 31.6689 117.921 30.6333C117.19 29.5368 116.033 28.9886 114.449 28.9886Z" fill="#C94402"/>
<path d="M55.7581 60.2383C57.281 60.2383 58.8039 59.3855 60.3268 57.6799C61.8497 55.9742 63.2508 53.9031 64.53 51.4665C65.8092 48.9689 66.9057 46.3191 67.8194 43.517C68.7941 40.654 69.5251 38.065 70.0124 35.7502L71.2916 29.4455C70.5606 29.08 69.7078 28.8363 68.7332 28.7145C67.8194 28.5926 66.9362 28.5317 66.0833 28.5317C63.3421 28.5317 60.9969 29.3236 59.0476 30.9074C57.1592 32.4303 55.6058 34.4101 54.3875 36.8467C53.2301 39.2224 52.3773 41.8723 51.8291 44.7962C51.3417 47.6593 51.0981 50.4005 51.0981 53.0198C51.0981 55.7001 51.4636 57.5885 52.1946 58.685C52.9865 59.7206 54.1743 60.2383 55.7581 60.2383ZM52.3773 67.731C50.1844 67.731 48.3264 67.3046 46.8035 66.4517C45.2806 65.5989 44.0319 64.472 43.0572 63.0709C42.0826 61.6089 41.3516 59.9947 40.8643 58.2281C40.4378 56.4007 40.2246 54.5427 40.2246 52.6543C40.2246 48.3293 40.7729 44.2784 41.8694 40.5017C43.0268 36.7249 44.7019 33.4354 46.8949 30.6333C49.0879 27.7703 51.7682 25.5469 54.9358 23.9631C58.1034 22.3183 61.7583 21.496 65.9006 21.496C66.9362 21.496 68.3981 21.6178 70.2865 21.8615C72.1749 22.0442 74.3374 22.6534 76.774 23.6889L82.5306 24.0544L78.4188 45.3445C77.8096 48.573 77.505 51.4056 77.505 53.8422C77.505 56.8271 77.8705 59.1419 78.6015 60.7866C79.3934 62.3704 80.1244 63.6496 80.7945 64.6243L72.5709 67.9137C71.6571 66.8781 70.8957 65.5989 70.2865 64.076C69.7383 62.5531 69.4642 60.817 69.4642 58.8677C69.4642 58.0758 69.5251 57.0707 69.6469 55.8524C69.7687 54.5732 69.921 53.1417 70.1038 51.5579L68.5504 55.2128C67.5149 57.5885 66.3879 59.5987 65.1696 61.2434C63.9513 62.8273 62.6416 64.1065 61.2405 65.0811C59.9004 66.0558 58.4689 66.7259 56.946 67.0914C55.484 67.5178 53.9611 67.731 52.3773 67.731Z" fill="#C94402"/>
<path d="M41.798 13.0896C41.4934 11.9322 41.0061 10.8662 40.336 9.89155C39.7268 8.9169 38.6913 8.42957 37.2293 8.42957C35.3409 8.42957 33.8485 9.00827 32.752 10.1657C31.7164 11.2622 31.1987 12.9373 31.1987 15.1912C31.1987 16.044 31.2596 17.1101 31.3814 18.3893C31.5641 19.6685 31.8383 20.9477 32.2038 22.227H42.8945L41.7066 29.6282H31.3814L24.5284 64.7157C23.8583 68.066 22.9141 70.8681 21.6958 73.122C20.4775 75.4368 19.0155 77.4166 17.3099 79.0613C15.6042 80.7669 13.6549 82.2594 11.462 83.5386C9.32993 84.8178 6.98467 86.0971 4.42621 87.3763L0.862648 80.4319C2.87286 79.5182 4.63942 78.6044 6.16231 77.6907C7.62429 76.777 8.90352 75.7719 10 74.6754C11.0965 73.5789 12.0102 72.2997 12.7412 70.8377C13.4722 69.4366 14.0204 67.7614 14.3859 65.8121L21.4217 29.6282H13.4722V22.227H23.6147C22.8227 21.0696 22.2745 19.7903 21.9699 18.3893C21.7263 16.9273 21.6044 15.5872 21.6044 14.3689C21.6044 12.1759 22.0613 10.257 22.975 8.61232C23.8888 6.90668 25.1071 5.50562 26.63 4.40914C28.1529 3.25174 29.9194 2.39892 31.9296 1.85068C34.0008 1.30244 36.1633 1.02832 38.4172 1.02832C41.7675 1.02832 44.2346 1.85068 45.8184 3.49541C47.4631 5.14013 48.651 7.24172 49.382 9.80018L41.798 13.0896Z" fill="#C94402"/>
</svg>
