<svg width="171" height="88" viewBox="0 0 171 88" fill="none" xmlns="http://www.w3.org/2000/svg">
<path d="M165.131 33.6487C164.34 32.7959 163.517 32.0953 162.664 31.5471C161.812 30.9989 160.685 30.7247 159.284 30.7247C158.431 30.7247 157.578 31.1207 156.725 31.9126C155.933 32.7045 155.141 33.7705 154.349 35.1107C153.618 36.3899 152.918 37.8823 152.248 39.588C151.578 41.2327 150.999 42.9079 150.512 44.6135L146.126 67H135.892L140.552 43.9739C140.918 42.2073 141.161 40.5626 141.283 39.0397C141.466 37.5168 141.557 36.1462 141.557 34.9279C141.557 31.5776 141.253 29.1409 140.643 27.618C140.034 26.0951 139.577 25.09 139.273 24.6027L147.588 21.3133C148.258 22.1661 148.806 23.2016 149.232 24.42C149.72 25.6383 149.963 27.1916 149.963 29.08C149.963 30.3592 149.842 31.7908 149.598 33.3746C149.415 34.8975 149.263 36.3594 149.141 37.7605C150.42 32.2172 152.096 28.1054 154.167 25.4251C156.238 22.7448 158.979 21.4046 162.39 21.4046C164.461 21.4046 166.137 21.7701 167.416 22.5011C168.695 23.1712 169.7 24.0545 170.431 25.1509L165.131 33.6487Z" fill="currentColor"/>
<path d="M129.983 36.5726C129.983 40.8976 129.404 44.9485 128.247 48.7253C127.15 52.5021 125.505 55.822 123.312 58.685C121.119 61.4871 118.409 63.7106 115.18 65.3553C112.013 66.9391 108.388 67.731 104.307 67.731C102.114 67.731 100.012 67.4873 98.002 67C95.9917 66.5127 94.2252 65.9949 92.7023 65.4466C91.2403 64.8984 90.0829 64.4111 89.2301 63.9847C88.3773 63.4973 87.9813 63.2537 88.0423 63.2537L99.9208 2.58168L110.246 0.754211L107.413 16.0136C107.048 17.9629 106.469 20.3081 105.677 23.0493C104.885 25.7905 104.094 28.3795 103.302 30.8161C105.251 27.283 107.444 24.8464 109.881 23.5062C112.378 22.1661 115.028 21.496 117.83 21.496C120.023 21.496 121.881 21.9224 123.404 22.7752C124.927 23.628 126.175 24.7854 127.15 26.2474C128.125 27.6485 128.825 29.2627 129.252 31.0902C129.739 32.8568 129.983 34.6842 129.983 36.5726ZM114.449 28.9886C112.987 28.9886 111.525 29.7196 110.063 31.1816C108.662 32.6436 107.292 34.5929 105.951 37.0295C104.672 39.4052 103.484 42.1464 102.388 45.2531C101.352 48.2989 100.53 51.4665 99.9208 54.756L98.9157 59.8729C99.8294 60.1774 100.743 60.3907 101.657 60.5125C102.632 60.6343 103.454 60.6952 104.124 60.6952C106.865 60.6952 109.18 59.9338 111.068 58.4109C112.957 56.8271 114.48 54.8473 115.637 52.4716C116.855 50.035 117.739 47.3852 118.287 44.5221C118.835 41.5982 119.109 38.8265 119.109 36.2071C119.109 33.5268 118.713 31.6689 117.921 30.6333C117.19 29.5369 116.033 28.9886 114.449 28.9886Z" fill="currentColor"/>
<path d="M55.7581 60.2384C57.281 60.2384 58.8039 59.3855 60.3268 57.6799C61.8497 55.9743 63.2508 53.9031 64.53 51.4665C65.8092 48.969 66.9057 46.3191 67.8194 43.517C68.7941 40.654 69.5251 38.0651 70.0124 35.7503L71.2916 29.4455C70.5606 29.08 69.7078 28.8363 68.7332 28.7145C67.8194 28.5927 66.9362 28.5318 66.0833 28.5318C63.3421 28.5318 60.9969 29.3237 59.0476 30.9075C57.1592 32.4304 55.6058 34.4101 54.3875 36.8468C53.2301 39.2225 52.3773 41.8723 51.8291 44.7962C51.3417 47.6593 51.0981 50.4005 51.0981 53.0199C51.0981 55.7001 51.4636 57.5885 52.1946 58.685C52.9865 59.7206 54.1743 60.2384 55.7581 60.2384ZM52.3773 67.731C50.1844 67.731 48.3264 67.3046 46.8035 66.4518C45.2806 65.5989 44.0319 64.472 43.0572 63.0709C42.0826 61.609 41.3516 59.9947 40.8643 58.2281C40.4378 56.4007 40.2246 54.5428 40.2246 52.6544C40.2246 48.3294 40.7729 44.2785 41.8694 40.5017C43.0268 36.7249 44.7019 33.4355 46.8949 30.6334C49.0879 27.7703 51.7682 25.5469 54.9358 23.9631C58.1034 22.3184 61.7583 21.496 65.9006 21.496C66.9362 21.496 68.3981 21.6178 70.2865 21.8615C72.1749 22.0442 74.3374 22.6534 76.774 23.689L82.5306 24.0545L78.4188 45.3445C77.8096 48.573 77.505 51.4056 77.505 53.8422C77.505 56.8271 77.8705 59.1419 78.6015 60.7866C79.3934 62.3704 80.1244 63.6496 80.7945 64.6243L72.5709 67.9137C71.6571 66.8782 70.8957 65.5989 70.2865 64.0761C69.7383 62.5532 69.4642 60.8171 69.4642 58.8678C69.4642 58.0759 69.5251 57.0708 69.6469 55.8524C69.7687 54.5732 69.921 53.1417 70.1038 51.5579L68.5504 55.2128C67.5149 57.5885 66.3879 59.5988 65.1696 61.2435C63.9513 62.8273 62.6416 64.1065 61.2405 65.0812C59.9004 66.0558 58.4689 66.7259 56.946 67.0914C55.484 67.5178 53.9611 67.731 52.3773 67.731Z" fill="currentColor"/>
<path d="M41.798 13.0896C41.4934 11.9322 41.0061 10.8662 40.336 9.89157C39.7268 8.91692 38.6913 8.42959 37.2293 8.42959C35.3409 8.42959 33.8485 9.00829 32.752 10.1657C31.7164 11.2622 31.1987 12.9373 31.1987 15.1912C31.1987 16.044 31.2596 17.1101 31.3814 18.3893C31.5641 19.6685 31.8383 20.9478 32.2038 22.227H42.8945L41.7066 29.6282H31.3814L24.5284 64.7157C23.8583 68.066 22.9141 70.8681 21.6958 73.122C20.4775 75.4368 19.0155 77.4166 17.3099 79.0613C15.6042 80.767 13.6549 82.2594 11.462 83.5386C9.32993 84.8178 6.98467 86.0971 4.42621 87.3763L0.862648 80.4319C2.87286 79.5182 4.63942 78.6044 6.16231 77.6907C7.62429 76.777 8.90352 75.7719 10 74.6754C11.0965 73.5789 12.0102 72.2997 12.7412 70.8377C13.4722 69.4366 14.0204 67.7615 14.3859 65.8121L21.4217 29.6282H13.4722V22.227H23.6147C22.8227 21.0696 22.2745 19.7904 21.9699 18.3893C21.7263 16.9273 21.6044 15.5872 21.6044 14.3689C21.6044 12.1759 22.0613 10.2571 22.975 8.61234C23.8888 6.9067 25.1071 5.50564 26.63 4.40915C28.1529 3.25176 29.9194 2.39894 31.9296 1.8507C34.0008 1.30246 36.1633 1.02834 38.4172 1.02834C41.7675 1.02834 44.2346 1.8507 45.8184 3.49542C47.4631 5.14014 48.651 7.24173 49.382 9.80019L41.798 13.0896Z" fill="currentColor"/>
</svg>
