<svg width="305" height="88" viewBox="0 0 305 88" fill="none" xmlns="http://www.w3.org/2000/svg">
<path d="M187.105 68V28.58H197.311C199.867 28.58 202.063 29.066 203.899 30.038C205.771 31.01 207.211 32.378 208.219 34.142C209.263 35.906 209.785 37.994 209.785 40.406V56.12C209.785 58.532 209.263 60.638 208.219 62.438C207.211 64.202 205.771 65.57 203.899 66.542C202.063 67.514 199.867 68 197.311 68H187.105ZM191.965 63.68H197.311C199.687 63.68 201.541 63.014 202.873 61.682C204.241 60.35 204.925 58.496 204.925 56.12V40.406C204.925 38.066 204.241 36.23 202.873 34.898C201.541 33.566 199.687 32.9 197.311 32.9H191.965V63.68ZM228.016 68.54C225.604 68.54 223.498 68.072 221.698 67.136C219.934 66.164 218.566 64.814 217.594 63.086C216.622 61.322 216.136 59.27 216.136 56.93V39.65C216.136 37.274 216.622 35.222 217.594 33.494C218.566 31.766 219.934 30.434 221.698 29.498C223.498 28.526 225.604 28.04 228.016 28.04C230.464 28.04 232.57 28.526 234.334 29.498C236.098 30.434 237.466 31.766 238.438 33.494C239.41 35.222 239.896 37.274 239.896 39.65V56.93C239.896 59.27 239.41 61.322 238.438 63.086C237.466 64.814 236.08 66.164 234.28 67.136C232.516 68.072 230.428 68.54 228.016 68.54ZM228.016 64.382C230.176 64.382 231.904 63.698 233.2 62.33C234.532 60.926 235.198 59.126 235.198 56.93V39.65C235.198 37.454 234.532 35.672 233.2 34.304C231.904 32.9 230.176 32.198 228.016 32.198C225.856 32.198 224.11 32.9 222.778 34.304C221.482 35.672 220.834 37.454 220.834 39.65V56.93C220.834 59.126 221.482 60.926 222.778 62.33C224.11 63.698 225.856 64.382 228.016 64.382ZM228.016 51.476C227.044 51.476 226.252 51.17 225.64 50.558C225.064 49.946 224.776 49.136 224.776 48.128C224.776 47.156 225.064 46.382 225.64 45.806C226.252 45.194 227.044 44.888 228.016 44.888C228.988 44.888 229.762 45.194 230.338 45.806C230.95 46.382 231.256 47.156 231.256 48.128C231.256 49.136 230.95 49.946 230.338 50.558C229.762 51.17 228.988 51.476 228.016 51.476ZM257.911 68.54C255.535 68.54 253.465 68.09 251.701 67.19C249.973 66.29 248.623 64.994 247.651 63.302C246.715 61.574 246.247 59.54 246.247 57.2V39.38C246.247 37.004 246.715 34.97 247.651 33.278C248.623 31.586 249.973 30.29 251.701 29.39C253.465 28.49 255.535 28.04 257.911 28.04C260.287 28.04 262.339 28.508 264.067 29.444C265.795 30.344 267.127 31.64 268.063 33.332C268.999 35.024 269.467 37.04 269.467 39.38H264.607C264.607 37.148 264.013 35.438 262.825 34.25C261.673 33.026 260.035 32.414 257.911 32.414C255.787 32.414 254.113 33.008 252.889 34.196C251.701 35.384 251.107 37.094 251.107 39.326V57.2C251.107 59.432 251.701 61.16 252.889 62.384C254.113 63.572 255.787 64.166 257.911 64.166C260.035 64.166 261.673 63.572 262.825 62.384C264.013 61.16 264.607 59.432 264.607 57.2H269.467C269.467 59.504 268.999 61.52 268.063 63.248C267.127 64.94 265.795 66.254 264.067 67.19C262.339 68.09 260.287 68.54 257.911 68.54ZM287.59 68.54C284.998 68.54 282.766 68.108 280.894 67.244C279.058 66.38 277.636 65.138 276.628 63.518C275.62 61.898 275.098 59.972 275.062 57.74H279.922C279.922 59.72 280.588 61.286 281.92 62.438C283.288 63.59 285.178 64.166 287.59 64.166C289.858 64.166 291.622 63.608 292.882 62.492C294.178 61.376 294.826 59.828 294.826 57.848C294.826 56.264 294.394 54.878 293.53 53.69C292.702 52.502 291.496 51.674 289.912 51.206L284.566 49.532C281.866 48.704 279.778 47.318 278.302 45.374C276.862 43.43 276.142 41.144 276.142 38.516C276.142 36.392 276.61 34.556 277.546 33.008C278.518 31.424 279.868 30.2 281.596 29.336C283.324 28.436 285.358 27.986 287.698 27.986C291.154 27.986 293.926 28.958 296.014 30.902C298.102 32.81 299.164 35.366 299.2 38.57H294.34C294.34 36.626 293.746 35.114 292.558 34.034C291.406 32.918 289.768 32.36 287.644 32.36C285.556 32.36 283.918 32.864 282.73 33.872C281.578 34.88 281.002 36.284 281.002 38.084C281.002 39.704 281.434 41.108 282.298 42.296C283.162 43.484 284.404 44.33 286.024 44.834L291.424 46.562C294.052 47.39 296.086 48.794 297.526 50.774C298.966 52.754 299.686 55.076 299.686 57.74C299.686 59.9 299.182 61.79 298.174 63.41C297.166 65.03 295.744 66.29 293.908 67.19C292.108 68.09 290.002 68.54 287.59 68.54Z" fill="#F1F1F1" fill-opacity="0.93"/>
<path d="M164.269 33.6487C163.477 32.7958 162.655 32.0953 161.802 31.5471C160.949 30.9988 159.822 30.7247 158.421 30.7247C157.568 30.7247 156.715 31.1207 155.862 31.9126C155.071 32.7045 154.279 33.7705 153.487 35.1106C152.756 36.3899 152.055 37.8823 151.385 39.5879C150.715 41.2327 150.136 42.9078 149.649 44.6135L145.263 67H135.029L139.689 43.9739C140.055 42.2073 140.299 40.5626 140.42 39.0397C140.603 37.5168 140.694 36.1462 140.694 34.9279C140.694 31.5775 140.39 29.1409 139.781 27.618C139.172 26.0951 138.715 25.09 138.41 24.6027L146.725 21.3132C147.395 22.166 147.943 23.2016 148.37 24.4199C148.857 25.6382 149.101 27.1916 149.101 29.08C149.101 30.3592 148.979 31.7907 148.735 33.3745C148.553 34.8974 148.4 36.3594 148.278 37.7605C149.558 32.2171 151.233 28.1053 153.304 25.425C155.375 22.7447 158.116 21.4046 161.528 21.4046C163.599 21.4046 165.274 21.7701 166.553 22.5011C167.832 23.1712 168.837 24.0544 169.568 25.1509L164.269 33.6487Z" fill="#EC8856"/>
<path d="M129.12 36.5726C129.12 40.8976 128.541 44.9485 127.384 48.7252C126.287 52.502 124.643 55.8219 122.45 58.685C120.257 61.4871 117.546 63.7105 114.318 65.3552C111.15 66.939 107.525 67.7309 103.444 67.7309C101.251 67.7309 99.1495 67.4873 97.1393 66.9999C95.1291 66.5126 93.3626 65.9948 91.8397 65.4466C90.3777 64.8983 89.2203 64.411 88.3675 63.9846C87.5146 63.4973 87.1187 63.2536 87.1796 63.2536L99.0582 2.58162L109.383 0.75415L106.551 16.0135C106.185 17.9628 105.607 20.3081 104.815 23.0493C104.023 25.7905 103.231 28.3794 102.439 30.816C104.388 27.2829 106.581 24.8463 109.018 23.5062C111.515 22.166 114.165 21.4959 116.967 21.4959C119.16 21.4959 121.018 21.9223 122.541 22.7752C124.064 23.628 125.313 24.7854 126.287 26.2474C127.262 27.6484 127.963 29.2627 128.389 31.0902C128.876 32.8567 129.12 34.6842 129.12 36.5726ZM113.587 28.9886C112.125 28.9886 110.663 29.7195 109.201 31.1815C107.8 32.6435 106.429 34.5928 105.089 37.0294C103.81 39.4051 102.622 42.1463 101.525 45.253C100.49 48.2988 99.6673 51.4664 99.0582 54.7559L98.0531 59.8728C98.9668 60.1774 99.8805 60.3906 100.794 60.5124C101.769 60.6343 102.591 60.6952 103.261 60.6952C106.003 60.6952 108.317 59.9337 110.206 58.4108C112.094 56.827 113.617 54.8473 114.774 52.4715C115.993 50.0349 116.876 47.3851 117.424 44.5221C117.972 41.5981 118.247 38.8264 118.247 36.2071C118.247 33.5268 117.851 31.6689 117.059 30.6333C116.328 29.5368 115.17 28.9886 113.587 28.9886Z" fill="#EC8856"/>
<path d="M54.8955 60.2383C56.4184 60.2383 57.9413 59.3855 59.4642 57.6799C60.9871 55.9742 62.3881 53.9031 63.6674 51.4665C64.9466 48.9689 66.0431 46.3191 66.9568 43.517C67.9314 40.654 68.6624 38.065 69.1498 35.7502L70.429 29.4455C69.698 29.08 68.8452 28.8363 67.8705 28.7145C66.9568 28.5926 66.0735 28.5317 65.2207 28.5317C62.4795 28.5317 60.1342 29.3236 58.1849 30.9074C56.2966 32.4303 54.7432 34.4101 53.5249 36.8467C52.3675 39.2224 51.5147 41.8723 50.9664 44.7962C50.4791 47.6593 50.2354 50.4005 50.2354 53.0198C50.2354 55.7001 50.6009 57.5885 51.3319 58.685C52.1238 59.7206 53.3117 60.2383 54.8955 60.2383ZM51.5147 67.731C49.3217 67.731 47.4638 67.3046 45.9409 66.4517C44.418 65.5989 43.1692 64.472 42.1946 63.0709C41.2199 61.6089 40.4889 59.9947 40.0016 58.2281C39.5752 56.4007 39.362 54.5427 39.362 52.6543C39.362 48.3293 39.9102 44.2784 41.0067 40.5017C42.1641 36.7249 43.8393 33.4354 46.0323 30.6333C48.2252 27.7703 50.9055 25.5469 54.0731 23.9631C57.2407 22.3183 60.8957 21.496 65.038 21.496C66.0735 21.496 67.5355 21.6178 69.4239 21.8615C71.3123 22.0442 73.4748 22.6534 75.9114 23.6889L81.6679 24.0544L77.5561 45.3445C76.947 48.573 76.6424 51.4056 76.6424 53.8422C76.6424 56.8271 77.0079 59.1419 77.7389 60.7866C78.5308 62.3704 79.2618 63.6496 79.9318 64.6243L71.7082 67.9137C70.7945 66.8781 70.033 65.5989 69.4239 64.076C68.8756 62.5531 68.6015 60.817 68.6015 58.8677C68.6015 58.0758 68.6624 57.0707 68.7843 55.8524C68.9061 54.5732 69.0584 53.1417 69.2411 51.5579L67.6878 55.2128C66.6522 57.5885 65.5253 59.5987 64.307 61.2434C63.0887 62.8273 61.779 64.1065 60.3779 65.0811C59.0378 66.0558 57.6062 66.7259 56.0834 67.0914C54.6214 67.5178 53.0985 67.731 51.5147 67.731Z" fill="#EC8856"/>
<path d="M40.9353 13.0896C40.6308 11.9322 40.1434 10.8662 39.4734 9.89155C38.8642 8.9169 37.8286 8.42957 36.3667 8.42957C34.4783 8.42957 32.9858 9.00827 31.8894 10.1657C30.8538 11.2622 30.336 12.9373 30.336 15.1912C30.336 16.044 30.3969 17.1101 30.5187 18.3893C30.7015 19.6685 30.9756 20.9477 31.3411 22.227H42.0318L40.844 29.6282H30.5187L23.6657 64.7157C22.9957 68.066 22.0515 70.8681 20.8332 73.122C19.6148 75.4368 18.1529 77.4166 16.4472 79.0613C14.7416 80.7669 12.7923 82.2594 10.5993 83.5386C8.46728 84.8178 6.12202 86.0971 3.56357 87.3763L0 80.4319C2.01022 79.5182 3.77677 78.6044 5.29966 77.6907C6.76164 76.777 8.04087 75.7719 9.13735 74.6754C10.2338 73.5789 11.1476 72.2997 11.8786 70.8377C12.6095 69.4366 13.1578 67.7614 13.5233 65.8121L20.559 29.6282H12.6095V22.227H22.752C21.9601 21.0696 21.4119 19.7903 21.1073 18.3893C20.8636 16.9273 20.7418 15.5872 20.7418 14.3689C20.7418 12.1759 21.1987 10.257 22.1124 8.61232C23.0261 6.90668 24.2444 5.50562 25.7673 4.40914C27.2902 3.25174 29.0568 2.39892 31.067 1.85068C33.1381 1.30244 35.3006 1.02832 37.5545 1.02832C40.9049 1.02832 43.372 1.85068 44.9558 3.49541C46.6005 5.14013 47.7883 7.24172 48.5193 9.80018L40.9353 13.0896Z" fill="#EC8856"/>
</svg>
